<mxfile host="app.diagrams.net" modified="2024-07-11T03:39:19.179Z" agent="Mozilla/5.0 (Windows NT 10.0; Win64; x64) AppleWebKit/537.36 (KHTML, like Gecko) Chrome/126.0.0.0 Safari/537.36 Edg/126.0.0.0" etag="dtiGjy59BVQLCRgBK29k" version="24.6.4" type="github">
  <diagram name="Page-1" id="74e2e168-ea6b-b213-b513-2b3c1d86103e">
    <mxGraphModel dx="924" dy="506" grid="1" gridSize="10" guides="1" tooltips="1" connect="1" arrows="1" fold="1" page="1" pageScale="1" pageWidth="850" pageHeight="1100" background="none" math="0" shadow="0">
      <root>
        <mxCell id="0" />
        <mxCell id="1" parent="0" />
        <mxCell id="77e6c97f196da883-1" value="&lt;font color=&quot;#ffffff&quot; style=&quot;font-size: 13px;&quot;&gt;开发流程&lt;/font&gt;" style="swimlane;html=1;childLayout=stackLayout;startSize=30;rounded=0;shadow=0;labelBackgroundColor=none;strokeWidth=1;fontFamily=Verdana;fontSize=8;align=center;fillColor=#014f9c;strokeColor=none;swimlaneFillColor=default;" parent="1" vertex="1">
          <mxGeometry x="70" y="40" width="429" height="360" as="geometry">
            <mxRectangle x="70" y="40" width="70" height="20" as="alternateBounds" />
          </mxGeometry>
        </mxCell>
        <mxCell id="77e6c97f196da883-2" value="&lt;font style=&quot;font-size: 12px;&quot;&gt;开发环境&lt;/font&gt;" style="swimlane;html=1;startSize=20;fillColor=default;fontColor=#014F9C;strokeColor=#6C8EBF;fontStyle=1" parent="77e6c97f196da883-1" vertex="1">
          <mxGeometry y="30" width="140" height="330" as="geometry" />
        </mxCell>
        <mxCell id="YYDFMAxgsG2Qx_cfkvnm-2" value="" style="edgeStyle=orthogonalEdgeStyle;rounded=0;orthogonalLoop=1;jettySize=auto;html=1;" edge="1" parent="77e6c97f196da883-2" source="77e6c97f196da883-8" target="YYDFMAxgsG2Qx_cfkvnm-1">
          <mxGeometry relative="1" as="geometry" />
        </mxCell>
        <mxCell id="77e6c97f196da883-8" value="&lt;font style=&quot;font-size: 12px;&quot;&gt;编辑&lt;/font&gt;" style="rounded=0;html=1;shadow=0;labelBackgroundColor=none;strokeWidth=1;fontFamily=Verdana;fontSize=12;align=center;strokeColor=#6c8ebf;fillColor=#dae8fc;" parent="77e6c97f196da883-2" vertex="1">
          <mxGeometry x="37" y="48" width="86" height="23" as="geometry" />
        </mxCell>
        <mxCell id="YYDFMAxgsG2Qx_cfkvnm-5" value="" style="edgeStyle=orthogonalEdgeStyle;rounded=0;orthogonalLoop=1;jettySize=auto;html=1;strokeColor=#000000;" edge="1" parent="77e6c97f196da883-2" source="YYDFMAxgsG2Qx_cfkvnm-1" target="77e6c97f196da883-13">
          <mxGeometry relative="1" as="geometry" />
        </mxCell>
        <mxCell id="YYDFMAxgsG2Qx_cfkvnm-1" value="&lt;font style=&quot;font-size: 12px;&quot;&gt;预览&lt;/font&gt;" style="rounded=0;whiteSpace=wrap;html=1;shadow=0;labelBackgroundColor=none;strokeWidth=1;fontFamily=Verdana;fontSize=12;align=center;glass=0;strokeColor=#6c8ebf;fillColor=#dae8fc;textShadow=1;" vertex="1" parent="77e6c97f196da883-2">
          <mxGeometry x="37" y="100" width="86" height="23" as="geometry" />
        </mxCell>
        <mxCell id="YYDFMAxgsG2Qx_cfkvnm-7" value="" style="edgeStyle=orthogonalEdgeStyle;rounded=0;orthogonalLoop=1;jettySize=auto;html=1;" edge="1" parent="77e6c97f196da883-2" source="77e6c97f196da883-13" target="dNjiUNZJLr1TQURcCVdI-9">
          <mxGeometry relative="1" as="geometry">
            <mxPoint x="79.99499999999989" y="250" as="targetPoint" />
          </mxGeometry>
        </mxCell>
        <mxCell id="YYDFMAxgsG2Qx_cfkvnm-9" value="是" style="edgeLabel;html=1;align=center;verticalAlign=middle;resizable=0;points=[];" vertex="1" connectable="0" parent="YYDFMAxgsG2Qx_cfkvnm-7">
          <mxGeometry x="-0.1606" y="-1" relative="1" as="geometry">
            <mxPoint x="1" y="-5" as="offset" />
          </mxGeometry>
        </mxCell>
        <mxCell id="YYDFMAxgsG2Qx_cfkvnm-10" style="edgeStyle=orthogonalEdgeStyle;rounded=0;orthogonalLoop=1;jettySize=auto;html=1;exitX=0;exitY=0.5;exitDx=0;exitDy=0;entryX=0;entryY=0.5;entryDx=0;entryDy=0;" edge="1" parent="77e6c97f196da883-2" source="77e6c97f196da883-13" target="77e6c97f196da883-8">
          <mxGeometry relative="1" as="geometry" />
        </mxCell>
        <mxCell id="YYDFMAxgsG2Qx_cfkvnm-11" value="否" style="edgeLabel;html=1;align=center;verticalAlign=middle;resizable=0;points=[];" vertex="1" connectable="0" parent="YYDFMAxgsG2Qx_cfkvnm-10">
          <mxGeometry x="0.0557" relative="1" as="geometry">
            <mxPoint as="offset" />
          </mxGeometry>
        </mxCell>
        <mxCell id="77e6c97f196da883-13" value="&lt;font style=&quot;font-size: 12px;&quot;&gt;完成需求&lt;/font&gt;" style="rhombus;whiteSpace=wrap;html=1;rounded=0;shadow=0;labelBackgroundColor=none;strokeWidth=1;fontFamily=Verdana;fontSize=12;align=center;strokeColor=#d79b00;fillColor=#ffe6cc;textShadow=1;aspect=fixed;" parent="77e6c97f196da883-2" vertex="1">
          <mxGeometry x="37" y="150" width="86" height="46.07" as="geometry" />
        </mxCell>
        <mxCell id="dNjiUNZJLr1TQURcCVdI-9" value="&lt;font style=&quot;font-size: 12px;&quot;&gt;保存&lt;/font&gt;" style="rounded=0;html=1;shadow=0;labelBackgroundColor=none;strokeWidth=1;fontFamily=Verdana;fontSize=12;align=center;strokeColor=#6c8ebf;fillColor=#dae8fc;" vertex="1" parent="77e6c97f196da883-2">
          <mxGeometry x="37" y="230" width="86" height="23" as="geometry" />
        </mxCell>
        <mxCell id="77e6c97f196da883-3" value="测试环境" style="swimlane;html=1;startSize=20;fillColor=none;aspect=fixed;fontColor=#014F9C;strokeColor=#6C8EBF;" parent="77e6c97f196da883-1" vertex="1">
          <mxGeometry x="140" y="30" width="149" height="330" as="geometry" />
        </mxCell>
        <mxCell id="dNjiUNZJLr1TQURcCVdI-14" value="" style="edgeStyle=orthogonalEdgeStyle;rounded=0;orthogonalLoop=1;jettySize=auto;html=1;" edge="1" parent="77e6c97f196da883-3" source="dNjiUNZJLr1TQURcCVdI-11" target="dNjiUNZJLr1TQURcCVdI-13">
          <mxGeometry relative="1" as="geometry" />
        </mxCell>
        <mxCell id="dNjiUNZJLr1TQURcCVdI-11" value="发布到测试" style="rounded=0;html=1;shadow=0;labelBackgroundColor=none;strokeWidth=1;fontFamily=Verdana;fontSize=12;align=center;strokeColor=#6c8ebf;fillColor=#dae8fc;" vertex="1" parent="77e6c97f196da883-3">
          <mxGeometry x="31.5" y="230" width="86" height="23" as="geometry" />
        </mxCell>
        <mxCell id="dNjiUNZJLr1TQURcCVdI-13" value="测试完成" style="rounded=0;html=1;shadow=0;labelBackgroundColor=none;strokeWidth=1;fontFamily=Verdana;fontSize=12;align=center;strokeColor=#6c8ebf;fillColor=#dae8fc;" vertex="1" parent="77e6c97f196da883-3">
          <mxGeometry x="31.5" y="280" width="86" height="23" as="geometry" />
        </mxCell>
        <mxCell id="77e6c97f196da883-4" value="正式环境" style="swimlane;html=1;startSize=20;fillColor=none;aspect=fixed;fontColor=#014F9C;strokeColor=#6C8EBF;" parent="77e6c97f196da883-1" vertex="1">
          <mxGeometry x="289" y="30" width="140" height="330" as="geometry" />
        </mxCell>
        <mxCell id="dNjiUNZJLr1TQURcCVdI-15" value="发布到正式" style="rounded=0;html=1;shadow=0;labelBackgroundColor=none;strokeWidth=1;fontFamily=Verdana;fontSize=12;align=center;strokeColor=#6c8ebf;fillColor=#dae8fc;" vertex="1" parent="77e6c97f196da883-4">
          <mxGeometry x="27" y="280" width="86" height="23" as="geometry" />
        </mxCell>
        <mxCell id="dNjiUNZJLr1TQURcCVdI-12" value="" style="edgeStyle=orthogonalEdgeStyle;rounded=0;orthogonalLoop=1;jettySize=auto;html=1;" edge="1" parent="77e6c97f196da883-1" source="dNjiUNZJLr1TQURcCVdI-9" target="dNjiUNZJLr1TQURcCVdI-11">
          <mxGeometry relative="1" as="geometry" />
        </mxCell>
        <mxCell id="dNjiUNZJLr1TQURcCVdI-16" value="" style="edgeStyle=orthogonalEdgeStyle;rounded=0;orthogonalLoop=1;jettySize=auto;html=1;" edge="1" parent="77e6c97f196da883-1" source="dNjiUNZJLr1TQURcCVdI-13" target="dNjiUNZJLr1TQURcCVdI-15">
          <mxGeometry relative="1" as="geometry" />
        </mxCell>
      </root>
    </mxGraphModel>
  </diagram>
</mxfile>
